<svg xmlns="http://www.w3.org/2000/svg" viewbox="0 0 33 33"><path d="M3.8 12.5c0-1.7 1.4-3 3.1-3h7c1.1 0 2 .5 2.6 1.4.6-.8 1.5-1.4 2.6-1.4h7c1.7 0 3.1 1.4 3.1 3v.1h.8v-3c0-1.8-1.5-3.3-3.4-3.3H6.4C4.5 6.3 3 7.8 3 9.7v3h.8v-.2zM31.7 14H1.3c-.7 0-1.3.6-1.3 1.3v7.4c0 .7.6 1.3 1.3 1.3h.5l-.6 1.8c-.1.4.1.8.4.9h.2c.3 0 .6-.2.7-.5l.9-2.2h26.2l.8 2.2c.1.3.4.5.7.5h.2c.4-.1.6-.5.4-.9l-.6-1.8h.5c.7 0 1.3-.6 1.3-1.3v-7.4c.1-.7-.5-1.3-1.2-1.3z"/><path d="M19.1 10.9c-.9 0-1.7.7-1.7 1.6v.1h10.3v-.1c0-.9-.7-1.6-1.7-1.6h-6.9zM6.9 10.9c-.9 0-1.7.7-1.7 1.6v.1h10.3v-.1c0-.9-.7-1.6-1.7-1.6H6.9z"/></svg>