<?xml version="1.0" standalone="no"?>
<!DOCTYPE svg PUBLIC "-//W3C//DTD SVG 20010904//EN"
 "http://www.w3.org/TR/2001/REC-SVG-20010904/DTD/svg10.dtd">
<svg version="1.0" xmlns="http://www.w3.org/2000/svg"
 width="1500.000000pt" height="1500.000000pt" viewBox="0 0 1500.000000 1500.000000"
 preserveAspectRatio="xMidYMid meet">
<metadata>
Created by potrace 1.11, written by Peter Selinger 2001-2013
</metadata>
<g transform="translate(0.000000,1500.000000) scale(0.100000,-0.100000)"
fill="#000000" stroke="none">
<path d="M4850 13090 l0 -290 -585 -2 -586 -3 -2 -290 -2 -290 -292 -3 -293
-2 -2 -293 c-3 -251 -5 -292 -18 -293 -8 -1 -140 -2 -292 -3 l-278 -1 0 -585
0 -585 -292 -2 -293 -3 -3 -582 -2 -583 -293 -2 -292 -3 -3 -2347 -2 -2348
295 0 295 0 0 -295 0 -295 295 0 295 0 0 -295 0 -295 295 0 295 0 0 -295 0
-295 295 0 294 0 0 -287 0 -288 586 -3 585 -2 0 -295 0 -295 2645 0 2645 0 0
295 0 295 -2640 0 -2640 0 0 295 0 295 -590 0 -591 0 1 293 1 292 -295 3 -296
2 1 283 c0 155 0 288 0 295 -1 9 -66 12 -291 12 l-290 0 -2 292 -3 293 -292
-3 -293 -3 0 2345 0 2346 295 0 295 0 0 585 0 585 290 2 291 3 -1 588 0 587
295 0 295 0 0 290 0 290 588 2 587 3 3 293 2 292 2635 0 2635 0 0 -295 0 -295
590 0 591 0 -1 -267 c-1 -148 -1 -278 0 -290 l0 -23 293 0 292 0 -3 -567 c-1
-313 0 -578 3 -590 l5 -23 290 0 290 0 0 -585 0 -585 295 0 295 0 0 -2345 0
-2345 -295 0 -295 0 0 -290 0 -290 -284 0 c-230 0 -286 -3 -295 -14 -8 -10
-11 -94 -9 -295 l3 -281 -292 0 -293 0 -1 -272 c-1 -150 0 -283 1 -295 l1 -23
-588 -2 -588 -3 0 -290 0 -290 593 -3 592 -2 0 290 0 290 288 2 287 3 3 293 2
292 295 0 295 0 0 295 0 295 295 0 295 0 0 295 0 295 295 0 295 0 -2 2348 -3
2347 -292 3 -293 2 0 585 0 585 -295 0 -295 0 -2 585 -3 585 -290 3 -290 2 -3
293 -2 292 -290 0 -290 0 -2 293 -3 292 -587 3 -588 2 0 290 0 290 -2645 0
-2645 0 0 -290z"/>
<path d="M4847 10454 c-4 -4 -7 -137 -7 -296 l0 -288 -587 2 -588 3 3 -297 3
-298 -296 0 -295 0 0 -292 0 -293 -242 3 c-133 2 -265 1 -295 -3 l-53 -6 2
-1765 3 -1765 292 0 293 -1 2 -291 3 -292 292 -3 293 -2 2 -293 3 -292 293 -3
292 -2 -1 -293 -2 -292 587 0 586 0 0 -292 0 -293 2065 0 2065 0 2 290 3 291
577 -1 c378 0 579 3 583 10 3 5 6 138 5 295 l-1 286 306 -3 c168 -2 301 -1
295 0 -6 2 -10 109 -10 298 l0 294 295 0 295 0 0 294 0 295 286 1 c158 0 291
3 295 6 12 7 11 3505 0 3522 -7 11 -64 13 -295 10 l-286 -3 0 293 0 292 -295
0 -295 0 0 294 c0 220 3 295 12 298 9 3 9 6 0 12 -7 4 -12 2 -12 -3 0 -8 -181
-11 -587 -11 l-588 0 3 287 c3 227 1 288 -10 295 -13 8 -1150 11 -1172 2 -8
-3 -10 -85 -9 -294 l2 -290 -1464 0 -1465 0 -2 293 -3 292 -586 3 c-322 1
-588 -1 -592 -4z m1175 -886 l3 -293 1470 0 1470 0 3 293 2 292 583 -2 582 -3
-4 -271 c-2 -150 0 -281 4 -293 l6 -21 585 0 584 0 2 -292 3 -293 293 -3 292
-2 0 -580 0 -580 -290 0 -290 0 0 290 0 290 -1180 0 -1180 0 2 -880 3 -881
583 -2 584 -2 1 -582 2 -583 -1172 0 -1173 0 0 290 0 290 295 0 295 0 -2 883
-3 882 -882 3 -883 2 0 -885 0 -885 295 0 295 0 0 -290 0 -290 -1175 0 -1175
0 2 583 3 582 585 2 585 3 3 880 2 880 -1180 0 -1180 0 0 -290 0 -290 -290 0
-290 0 0 580 0 580 295 0 295 0 0 295 0 295 585 0 585 0 0 288 c0 159 3 292 7
295 3 4 267 7 585 7 l578 0 2 -292z m-591 -2338 c-1 -151 -1 -281 -1 -287 0
-10 -65 -13 -290 -13 l-290 0 0 283 c0 156 3 287 7 290 4 4 134 6 291 5 l284
-3 -1 -275z m4709 -10 l0 -290 -295 0 -295 0 0 283 c0 156 3 287 7 290 3 4
136 7 295 7 l288 0 0 -290z m-5880 -1765 l0 -295 295 0 295 0 0 -295 0 -295
1175 0 1175 0 0 295 0 295 295 0 295 0 0 -295 0 -295 1173 2 1172 3 3 293 2
292 295 0 295 0 0 295 0 295 290 0 290 0 0 -585 0 -585 -295 0 -295 0 0 -295
0 -295 -582 0 -583 1 -3 -291 -2 -290 -2055 0 -2055 0 0 290 0 290 -585 0
-585 0 -2 293 -3 292 -292 3 -293 2 0 585 0 585 290 0 290 0 0 -295z"/>
<path d="M2485 9240 c3 -5 8 -10 11 -10 2 0 4 5 4 10 0 6 -5 10 -11 10 -5 0
-7 -4 -4 -10z"/>
<path d="M1945 4610 c-3 -6 1 -7 9 -4 18 7 21 14 7 14 -6 0 -13 -4 -16 -10z"/>
</g>
</svg>
